<svg width="1000px" height="1000px" version="1.1" xmlns="http://www.w3.org/2000/svg">
    <path style="fill:#666666;"
          d="M896,176C896,176,128,176,128,176C57.312,176,0,233.34400000000005,0,304C0,304,0,720,0,720C0,790.688,57.312,848,128,848C128,848,896,848,896,848C966.688,848,1024,790.688,1024,720C1024,720,1024,304,1024,304C1024,233.34400000000005,966.688,176,896,176C896,176,896,176,896,176M64,344C64,344,287.968,512,287.968,512C287.968,512,64,680,64,680C64,680,64,344,64,344C64,344,64,344,64,344M960,720C960,755.328,931.264,784,896,784C896,784,128,784,128,784C92.704,784,64,755.328,64,720C64,720,314.624,532,314.624,532C314.624,532,454.4,636.864,454.4,636.864C471.456,649.6,491.712,656.0640000000001,512,656.0640000000001C532.256,656.0640000000001,552.512,649.6320000000001,569.568,636.864C569.568,636.864,709.376,532,709.376,532C709.376,532,960,720,960,720C960,720,960,720,960,720C960,720,960,720,960,720M960,680C960,680,736,512,736,512C736,512,960,344,960,344C960,344,960,680,960,680C960,680,960,680,960,680M550.368,611.264C539.2,619.648,525.952,624.0640000000001,512,624.0640000000001C498.048,624.0640000000001,484.768,619.616,473.6,611.264C473.6,611.264,341.28,512,341.28,512C341.28,512,314.624,492,314.624,492C314.624,492,64,304.03200000000004,64,304.03200000000004C64,304.03200000000004,64,304,64,304C64,268.70399999999995,92.704,240,128,240C128,240,896,240,896,240C931.264,240,960,268.70399999999995,960,304C960,304,550.368,611.264,550.368,611.264C550.368,611.264,550.368,611.264,550.368,611.264">
    </path>
</svg>
